HIERARCHY
ROOT HipCenter
{
    OFFSET 0.0 0.0 -0.0
    CHANNELS 6 Xposition Yposition Zposition Zrotation Xrotation Yrotation
    JOINT Spine
    {
        OFFSET 0.0 0.12098976224660873 0.0
        CHANNELS 3 Zrotation Xrotation Yrotation
        JOINT ShoulderCenter
        {
            OFFSET 0.0 0.33491605520248413 0.0
            CHANNELS 3 Zrotation Xrotation Yrotation
            JOINT LeftShoulder
            {
                OFFSET 0.19045612215995789 0.0 0.0
                CHANNELS 3 Zrotation Xrotation Yrotation
                JOINT LeftElbow
                {
                    OFFSET 0.29751673340797424 0.0 0.0
                    CHANNELS 3 Zrotation Xrotation Yrotation
                    JOINT LeftWrist
                    {
                        OFFSET 0.29606032371520996 0.0 0.0
                        CHANNELS 3 Zrotation Xrotation Yrotation
                        JOINT LeftHand
                        {
                            OFFSET 0.04405241832137108 0.0 0.0
                            CHANNELS 3 Zrotation Xrotation Yrotation
                            End Site
                            {
                                OFFSET 0.017620965838432312 0.0 0.0
                            }
                        }
                    }
                }
            }
            JOINT RightShoulder
            {
                OFFSET -0.19045612215995789 0.0 0.0
                CHANNELS 3 Zrotation Xrotation Yrotation
                JOINT RightElbow
                {
                    OFFSET -0.29751673340797424 0.0 0.0
                    CHANNELS 3 Zrotation Xrotation Yrotation
                    JOINT RightWrist
                    {
                        OFFSET -0.29606032371520996 0.0 0.0
                        CHANNELS 3 Zrotation Xrotation Yrotation
                        JOINT RightHand
                        {
                            OFFSET -0.04405241832137108 0.0 0.0
                            CHANNELS 3 Zrotation Xrotation Yrotation
                            End Site
                            {
                                OFFSET -0.017620965838432312 0.0 0.0
                            }
                        }
                    }
                }
            }
            End Site
            {
                OFFSET 0.0 0.13396641612052917 0.0
            }
        }
    }
    JOINT LeftHip
    {
        OFFSET 0.13974791765213013 0.0 0.0
        CHANNELS 3 Zrotation Xrotation Yrotation
        JOINT LeftKnee
        {
            OFFSET 0.0 -0.4064266085624695 0.0
            CHANNELS 3 Zrotation Xrotation Yrotation
            JOINT LeftAnkle
            {
                OFFSET 0.0 -0.4478447735309601 0.0
                CHANNELS 3 Zrotation Xrotation Yrotation
                JOINT LeftFoot
                {
                    OFFSET 0.0 -0.10072599351406097 0.0
                    CHANNELS 3 Zrotation Xrotation Yrotation
                    End Site
                    {
                        OFFSET 0.0 0.0 0.04029040038585663
                    }
                }
            }
        }
    }
    JOINT RightHip
    {
        OFFSET -0.13974791765213013 0.0 0.0
        CHANNELS 3 Zrotation Xrotation Yrotation
        JOINT RightKnee
        {
            OFFSET 0.0 -0.4064266085624695 0.0
            CHANNELS 3 Zrotation Xrotation Yrotation
            JOINT RightAnkle
            {
                OFFSET 0.0 -0.4478447735309601 0.0
                CHANNELS 3 Zrotation Xrotation Yrotation
                JOINT RightFoot
                {
                    OFFSET 0.0 -0.10072599351406097 0.0
                    CHANNELS 3 Zrotation Xrotation Yrotation
                    End Site
                    {
                        OFFSET 0.0 0.0 0.04029040038585663
                    }
                }
            }
        }
    }
}
MOTION
Frames: 8
Frame Time: 0.03333333333333333
0.578000009059906 -0.061000000685453415 1.819000005722046 0.9548573951678879 6.18208372465265 -178.98213065793115 -0.32715151488951677 -3.9472518617579837 -0.12323262235011351 6.196990140826878e-09 -7.146058368163885e-07 2.5358667863075586 95.31857234900477 -22.654917982416897 169.71393257891992 -3.6391928771333015e-06 -1.6779466505818918e-06 24.558599742684304 4.658577282685935e-06 11.569623743475132 13.087931007171884 -3.531125038440127e-31 -6.3611093629270335e-15 -6.3611093629270335e-15 -94.66702467672528 -13.497126684547537 -163.630821333377 2.6140426346968076e-06 9.230598274895586e-07 -28.408254353769006 179.99999889497383 -39.96501986828527 138.09570507042372 -1.5902773407317584e-15 0.0 0.0 30.187646446456736 18.446103068826403 -82.85074801805149 6.220572878940555 -4.574325525085037 7.194963582940628 137.22947184960177 -40.30712859749105 -170.3957851453645 4.770832022195274e-15 0.0 0.0 -28.24958098807575 19.697345373022834 82.96561204052249 -5.3143742936696405 -4.361611516453375 -6.380543473350082 -121.98357291568423 -13.440882216759434 -179.42342263363258 -3.180554681463516e-15 0.0 0.0
0.5789999961853027 -0.061000000685453415 1.8200000524520874 1.4202754820505448 6.130302979441619 -178.98882684818307 0.13044887800265098 -3.8684826393671616 -0.0948967394066119 -1.7869046823040463e-07 -4.972751671461648e-07 2.4502963828150546 95.25043875757733 -22.531322334038272 170.67305540764187 6.413036118373987e-08 -2.1910025967168898e-07 22.849024949390508 -8.89488324476882e-07 1.2166504243089042 16.89314020521113 -8.827812596100317e-32 -3.180554681463516e-15 -3.180554681463516e-15 -94.62678138112064 -13.760650038920897 -163.7555829906436 -3.975237477285949e-07 -2.906555292929892e-06 -28.0181870192184 -179.99999962788812 -38.71898319563871 139.35854842060226 7.951386703658792e-15 -2.2069531490250793e-31 -3.1805546814635168e-15 30.76998884024942 18.21251824065411 -83.01089757056911 6.209832563135036 -4.567088288776197 7.228392903870184 135.7674947633951 -39.346958001555564 -171.43824390809164 3.975693351829396e-16 0.0 0.0 -27.554267265249507 19.52017510957459 82.24038755435954 -5.024785643427056 -4.1783550153065345 -6.035059176558257 -123.17207182321556 -14.26948459595102 -179.6001335795247 0.0 6.3611093629270335e-15 0.0
0.5789999961853027 -0.05999999865889549 1.8209999799728394 1.432106198704132 5.708804837135741 -179.32791235460624 0.3355893691113511 -4.262312037993894 -0.05790379614653616 -1.365848069691287e-07 -9.735095384630805e-07 2.7489966555447816 95.00926003415489 -23.179033031896385 171.46361382051987 -1.2298679927996506e-06 2.88994698804158e-06 21.44111016175103 1.744536122640136e-06 8.773808915453106 14.470346396574223 0.0 -3.975693351829396e-16 0.0 -94.75729270159334 -14.395721346148928 -163.53118145025587 9.341258325894448e-07 9.770179544619902e-07 -28.309281424689352 -179.999995506309 -39.62813221356979 138.15481353867318 3.1805546814635164e-15 0.0 0.0 30.80103025021771 17.88764802454667 -83.980198351318 6.342374186041095 -4.31910538124647 7.005238641173106 134.65348684467327 -38.795517505738545 -171.84365178577565 -1.5902773407317588e-15 -6.3611093629270335e-15 -6.3611093629270335e-15 -27.37621430375304 18.84579070314246 81.68748929148977 -4.83592159378486 -4.128734621858233 -6.078147758458272 -124.00525059298914 -15.031835364235281 -179.9278409577251 0.0 0.0 0.0
0.5789999961853027 -0.05999999865889549 1.8209999799728394 1.432106293914893 5.708804981278834 -179.36656422685277 0.3384699823412194 -4.262085305832319 -0.08651624026681781 9.03050291193898e-08 4.2244377266124134e-07 2.8425234775779313 95.01486850680567 -23.334441129329146 171.46549952230086 3.1607422006881205e-06 3.110442507506831e-06 21.371919414577622 -4.947552531374963e-06 10.47819359424383 13.814738891250569 0.0 0.0 0.0 -94.84736962475567 -14.072329526429748 -163.5512071476986 -5.35836249897127e-06 4.6809183265544027e-07 -28.18866107347255 -179.99999965061582 -39.86115373385439 138.3414371671585 -4.7708320221952736e-15 -6.361109362927032e-15 -2.648343778830095e-31 30.718760888516332 17.88329562972039 -83.49783781255667 6.293381765688059 -4.296034121050288 6.911756975527894 135.3075811327504 -38.59455951518611 -171.58976431267652 -8.74652537402467e-15 0.0 0.0 -27.46014035377742 18.854631833580562 81.83559896932925 -4.835690036910838 -4.3634357377284925 -6.416188438140313 -124.04701765754773 -15.328754312716683 -179.9263419506438 3.1805546814635168e-15 0.0 0.0
0.5789999961853027 -0.05999999865889549 1.8220000267028809 1.4321061557528982 5.708804654543562 -178.97075039448396 0.3121219333301166 -4.095862406561212 -0.08784558868586846 -8.526955622982964e-08 -6.322549330769997e-08 2.441583654809859 95.11644118155421 -24.314875992754377 171.59926923727284 -3.2445650176660947e-06 -6.277989077887579e-07 21.50776011573188 4.103079569380293e-06 4.784265109116927 13.23654226235109 6.361109362927032e-15 1.7655625192200634e-31 3.180554681463516e-15 -94.785433664859 -14.64080550835897 -163.878536920979 4.317113679719678e-06 5.33913964225509e-07 -27.902483028172536 179.99999673182916 -39.589268245122966 138.27633627393362 0.0 0.0 -6.361109362927033e-15 30.81809110967553 17.54487556499321 -83.82150228124945 6.156794176236948 -4.275669154894492 6.87871061621866 134.8458061772161 -39.035816417364394 -171.81019919430224 -3.1805546814635168e-15 0.0 0.0 -27.475642621986903 19.15514373986964 82.33992417815824 -5.126386835785022 -4.457781439737234 -6.502884794614407 -124.03843923736933 -14.685452891797597 -179.8722315010899 -6.3611093629270335e-15 -7.062250076880254e-31 1.2722218725854067e-14
0.5789999961853027 -0.05999999865889549 1.8220000267028809 1.4321061373816795 5.708804659578392 -179.3279584650578 0.3376942003274931 -4.093836881236201 -0.05546852243343246 -5.608352359606901e-08 5.5408845077288206e-08 2.767323151056678 95.11644118155421 -24.314875992754377 171.59926923727284 -3.2445650176660947e-06 -6.277989077887579e-07 21.50776011573188 5.442632595531885e-06 2.4264039295168867 14.590466857973484 0.0 -3.1805546814635168e-15 0.0 -94.73534921399823 -14.80832289165829 -163.86580894310455 7.686235196537221e-06 7.776231322509884e-07 -27.679014863024893 179.99999645204144 -41.74089465862962 139.4138419496602 1.7655625192200634e-31 -6.3611093629270335e-15 3.1805546814635168e-15 30.801016046960733 17.88767215186816 -83.98017162183261 6.615265038671063 -4.250880420087163 6.969421618888324 135.20398349214005 -39.23575690565073 -171.22553569341292 -1.590277340731758e-15 0.0 0.0 -27.448433681222593 18.872428571894847 81.79939184463596 -4.962294631735855 -4.387400043706303 -6.481613475457796 -124.46374331402343 -15.822602043646203 179.92888356616504 -3.1805546814635168e-15 0.0 0.0
0.5789999961853027 -0.05999999865889549 1.8229999542236328 1.432106197361145 5.23586752609433 -178.93065836062044 0.3006153304982279 -4.568928335051757 -0.0672256444897288 -1.2747269499383286e-07 1.1237850929690344e-07 2.5232166019043243 95.09167297040621 -24.641791829088525 171.60033484943162 -2.042753859317115e-06 -1.2735336781231532e-06 21.331175299975147 -1.405824029069655e-06 1.9599793344955558 14.76427035226475 0.0 -2.385416011097637e-15 0.0 -94.65190404304684 -14.28699885584732 -163.88573313430663 4.3735422314817205e-06 -1.0626934254631013e-06 -27.627024669136954 179.99999647227742 -42.13090544659545 139.4139720385814 0.0 0.0 6.3611093629270335e-15 30.815998661877774 17.141805510188817 -84.05182264058647 6.47831481825949 -4.231567799834525 6.93748538156753 134.73613153825244 -39.68056842438456 -171.45232942847574 -1.5902773407317584e-15 -6.3611093629270335e-15 -8.827812596100317e-32 -27.26202965537172 18.634984533129 81.30874172701371 -4.84417669476471 -4.354034355206508 -6.318862284179872 -124.31276972919989 -15.609161391168904 -179.90256268160826 -3.531125038440127e-31 -6.3611093629270335e-15 -6.3611093629270335e-15
0.5789999961853027 -0.05999999865889549 1.8229999542236328 1.432106197361145 5.23586752609433 -178.93065836062044 0.3006153304982279 -4.568928335051757 -0.0672256444897288 -1.2747269499383286e-07 1.1237850929690344e-07 2.5232166019043243 95.09167297040621 -24.641791829088525 171.60033484943162 -2.042753859317115e-06 -1.2735336781231532e-06 21.331175299975147 -1.405824029069655e-06 1.9599793344955558 14.76427035226475 0.0 -2.385416011097637e-15 0.0 -94.65190404304684 -14.28699885584732 -163.88573313430663 4.3735422314817205e-06 -1.0626934254631013e-06 -27.627024669136954 179.99999647227742 -42.13090544659545 139.4139720385814 0.0 0.0 6.3611093629270335e-15 30.815998661877774 17.141805510188817 -84.05182264058647 6.47831481825949 -4.231567799834525 6.93748538156753 134.73613153825244 -39.68056842438456 -171.45232942847574 -1.5902773407317584e-15 -6.3611093629270335e-15 -8.827812596100317e-32 -27.19022596510507 18.607607203215757 81.19846718840007 -4.941432051569692 -4.257464235333735 -6.2062983764024064 -124.42967706294442 -15.548899382205972 -179.96737480464614 0.0 0.0 0.0
